<svg width="156" height="24" fill="none" xmlns="http://www.w3.org/2000/svg"><path d="M12 0c-.397 0-.79.02-1.176.057a.364.364 0 00-.327.397.006.006 0 01-.005.006l-.023.003a.006.006 0 01-.006-.004.364.364 0 00-.418-.3c-.522.085-1.033.204-1.53.355a.364.364 0 00-.242.453c0 .003 0 .007-.004.008-.491.166-.968.364-1.427.591a.006.006 0 01-.008-.002.364.364 0 00-.492-.149c-.231.124-.458.255-.68.393a.364.364 0 00-.116.501.006.006 0 01-.002.008c-.218.146-.43.298-.637.458a.006.006 0 01-.008-.001.364.364 0 00-.512-.05 12.07 12.07 0 00-1.663 1.663.364.364 0 00.05.512.006.006 0 010 .008l-.013.018a.006.006 0 01-.008.001.364.364 0 00-.508.084c-.304.424-.582.869-.83 1.332a.364.364 0 00.149.492.006.006 0 01.002.008c-.227.46-.425.936-.591 1.427a.006.006 0 01-.008.004.364.364 0 00-.453.243c-.076.25-.143.502-.203.758a.364.364 0 00.272.437c.003 0 .005.003.004.007-.05.255-.093.513-.127.774a.006.006 0 01-.006.005.364.364 0 00-.397.327 12.14 12.14 0 000 2.352c.02.2.197.346.397.327.003 0 .006.002.006.005l.003.023a.006.006 0 01-.004.006.364.364 0 00-.3.418c.085.522.204 1.033.355 1.53.058.192.261.3.453.242.003 0 .007 0 .008.004.166.491.364.968.591 1.427a.006.006 0 01-.002.008.364.364 0 00-.149.492c.124.231.255.458.393.68.107.17.33.222.501.116a.006.006 0 01.008.002c.146.218.298.43.458.637a.006.006 0 01-.001.008.364.364 0 00-.05.512 12.066 12.066 0 001.663 1.663.364.364 0 00.512-.05.006.006 0 01.008 0l.018.013a.006.006 0 01.001.008.364.364 0 00.084.508c.424.304.869.582 1.332.83a.364.364 0 00.492-.149.006.006 0 01.008-.002c.46.227.936.425 1.427.591a.006.006 0 01.004.008.364.364 0 00.243.453c.25.076.502.143.758.203a.364.364 0 00.437-.272c0-.003.003-.005.007-.004.255.05.513.093.774.127.003 0 .005.003.005.006-.02.2.127.378.327.397a12.163 12.163 0 002.352 0c.2-.02.346-.197.327-.397 0-.003.002-.006.005-.006l.023-.003c.003 0 .006.001.006.004.033.199.22.333.418.3a11.945 11.945 0 001.53-.355.364.364 0 00.242-.453c0-.003 0-.007.004-.008.491-.166.968-.364 1.427-.591a.006.006 0 01.008.002.364.364 0 00.492.149c.231-.124.458-.255.68-.393a.364.364 0 00.116-.501.006.006 0 01.002-.008c.218-.146.43-.298.637-.458a.006.006 0 01.008.001.364.364 0 00.512.05 12.06 12.06 0 001.663-1.663.364.364 0 00-.05-.512.006.006 0 010-.008l.013-.018a.006.006 0 01.008-.001c.163.117.39.08.508-.084.304-.424.582-.869.83-1.332a.364.364 0 00-.149-.492.006.006 0 01-.002-.008c.227-.46.425-.936.591-1.427a.006.006 0 01.008-.004.364.364 0 00.453-.243c.076-.25.143-.502.203-.758a.364.364 0 00-.272-.437.006.006 0 01-.004-.006c.05-.256.093-.514.127-.775 0-.003.003-.005.006-.005.2.02.378-.127.397-.327a12.163 12.163 0 000-2.352.364.364 0 00-.397-.327.006.006 0 01-.006-.005l-.003-.023c0-.003.001-.006.004-.006a.364.364 0 00.3-.418 11.948 11.948 0 00-.355-1.53.364.364 0 00-.453-.242c-.003 0-.007 0-.008-.004a11.557 11.557 0 00-.591-1.427.006.006 0 01.002-.008.364.364 0 00.149-.492 12.041 12.041 0 00-.393-.68.364.364 0 00-.501-.116.006.006 0 01-.008-.002c-.146-.218-.298-.43-.458-.637a.006.006 0 01.001-.008.364.364 0 00.05-.512 12.065 12.065 0 00-1.663-1.663.364.364 0 00-.512.05.006.006 0 01-.008 0 2.55 2.55 0 00-.018-.013.006.006 0 01-.001-.008.364.364 0 00-.084-.508c-.424-.304-.869-.582-1.332-.83a.364.364 0 00-.492.149.006.006 0 01-.008.002c-.46-.227-.936-.425-1.427-.591a.006.006 0 01-.004-.008.364.364 0 00-.243-.453c-.25-.076-.502-.143-.758-.203a.364.364 0 00-.437.272.006.006 0 01-.006.004c-.256-.05-.514-.093-.775-.127a.006.006 0 01-.005-.006.364.364 0 00-.327-.397A12.14 12.14 0 0012 0z" fill="#FFC680"/><path d="M12 1.5c-.347 0-.69.017-1.03.05a.318.318 0 00-.285.347.005.005 0 01-.005.006l-.02.003a.005.005 0 01-.005-.005.318.318 0 00-.366-.262c-.456.075-.903.179-1.338.31a.318.318 0 00-.212.397c0 .003 0 .006-.003.007-.43.145-.847.318-1.25.518a.005.005 0 01-.006-.003.318.318 0 00-.43-.13c-.203.109-.401.223-.596.344a.318.318 0 00-.101.439.005.005 0 01-.002.007c-.19.127-.376.26-.558.4a.005.005 0 01-.007 0 .318.318 0 00-.447-.045c-.532.437-1.02.924-1.456 1.456a.318.318 0 00.044.447.005.005 0 010 .008l-.011.015a.005.005 0 01-.007.001.318.318 0 00-.444.073c-.267.372-.51.761-.727 1.166a.318.318 0 00.13.43.005.005 0 01.003.008c-.2.402-.373.819-.518 1.249a.005.005 0 01-.007.003.318.318 0 00-.396.212c-.067.218-.126.44-.178.664a.318.318 0 00.238.382c.003 0 .005.003.004.006-.044.223-.082.45-.111.678a.005.005 0 01-.006.004.318.318 0 00-.347.286 10.624 10.624 0 000 2.058.318.318 0 00.347.286c.003 0 .006.002.006.005l.003.02a.005.005 0 01-.005.005.318.318 0 00-.262.366c.075.456.179.903.31 1.338a.318.318 0 00.397.212c.003 0 .006 0 .007.003.145.43.318.847.518 1.25a.005.005 0 01-.003.006.318.318 0 00-.13.43c.109.203.223.402.344.596.093.149.29.194.439.101a.005.005 0 01.007.002c.127.19.26.376.4.557a.005.005 0 010 .008.318.318 0 00-.045.447c.437.532.924 1.02 1.456 1.456a.318.318 0 00.447-.044.005.005 0 01.008 0l.015.011a.005.005 0 01.001.007.318.318 0 00.073.444c.372.267.761.51 1.166.727a.318.318 0 00.43-.13.005.005 0 01.008-.003c.402.2.819.373 1.249.518.002.001.004.004.003.007a.318.318 0 00.212.396c.218.067.44.126.664.178a.318.318 0 00.382-.238c0-.003.003-.005.006-.004.223.044.45.082.678.111.002 0 .004.003.004.006a.318.318 0 00.286.347 10.643 10.643 0 002.058 0 .318.318 0 00.286-.347c0-.003.002-.006.005-.006l.02-.003c.002 0 .005.002.005.005a.318.318 0 00.366.262c.456-.075.903-.179 1.338-.31a.318.318 0 00.212-.397c0-.003 0-.006.003-.007.43-.145.847-.319 1.25-.518a.005.005 0 01.006.003.318.318 0 00.43.13c.203-.108.402-.223.596-.344a.318.318 0 00.101-.439.005.005 0 01.002-.007c.19-.127.376-.26.557-.4a.005.005 0 01.008 0 .318.318 0 00.447.045 10.57 10.57 0 001.456-1.456.318.318 0 00-.044-.448.005.005 0 010-.007l.011-.015a.005.005 0 01.007-.002c.143.103.342.07.444-.072.267-.372.51-.761.727-1.166a.318.318 0 00-.13-.431.005.005 0 01-.003-.007c.2-.402.373-.819.518-1.249.001-.002.004-.004.007-.003a.318.318 0 00.396-.212c.067-.218.126-.44.178-.664a.318.318 0 00-.238-.382.005.005 0 01-.004-.006c.044-.223.082-.45.111-.678 0-.002.003-.004.006-.004a.318.318 0 00.347-.286 10.643 10.643 0 000-2.058.318.318 0 00-.347-.286.005.005 0 01-.006-.005l-.003-.02c0-.002.002-.005.005-.005a.318.318 0 00.262-.366c-.075-.456-.179-.903-.31-1.338a.318.318 0 00-.397-.212c-.003 0-.006 0-.007-.003-.145-.43-.319-.847-.518-1.25a.005.005 0 01.003-.006.318.318 0 00.13-.43 10.48 10.48 0 00-.344-.596.318.318 0 00-.439-.101.005.005 0 01-.007-.002c-.127-.19-.26-.376-.4-.558a.005.005 0 010-.007.318.318 0 00.045-.447 10.566 10.566 0 00-1.456-1.456.318.318 0 00-.448.044.005.005 0 01-.007 0 1.97 1.97 0 00-.015-.011.005.005 0 01-.002-.007.318.318 0 00-.072-.444c-.372-.267-.761-.51-1.166-.727a.318.318 0 00-.431.13.005.005 0 01-.007.003c-.402-.2-.819-.373-1.249-.518a.005.005 0 01-.003-.007.318.318 0 00-.212-.396 10.43 10.43 0 00-.664-.178.318.318 0 00-.382.238.005.005 0 01-.006.004c-.223-.044-.45-.082-.678-.111a.005.005 0 01-.004-.006.318.318 0 00-.286-.347c-.338-.033-.682-.05-1.029-.05z" fill="#F79D5C"/><path d="M6.375 6c-.062 0-.123.003-.184.009a.057.057 0 00-.05.062l-.002.001h-.003-.001a.057.057 0 00-.065-.047 1.865 1.865 0 00-.24.055.057.057 0 00-.037.071v.001a1.807 1.807 0 00-.225.092.057.057 0 00-.077-.023c-.036.02-.072.04-.106.062a.057.057 0 00-.018.078v.001a1.825 1.825 0 00-.102.071.057.057 0 00-.08-.007 1.886 1.886 0 00-.26.26.057.057 0 00.008.08c0 .002 0 .003-.002.004a.057.057 0 00-.08.013 1.874 1.874 0 00-.13.208.057.057 0 00.023.077v.001a1.807 1.807 0 00-.093.224.057.057 0 00-.07.038 1.859 1.859 0 00-.032.118.057.057 0 00.042.068v.001a1.811 1.811 0 00-.02.122.057.057 0 00-.062.051 1.896 1.896 0 000 .368c.003.031.03.054.062.05l.001.002v.004a.057.057 0 00-.047.066c.013.081.032.16.055.238.01.03.041.047.071.038h.001a1.807 1.807 0 00.092.225.057.057 0 00-.023.077c.02.036.04.072.062.106a.057.057 0 00.078.018h.001a1.825 1.825 0 00.071.102.057.057 0 00-.007.08c.078.094.165.181.26.26.024.02.06.016.08-.008.002 0 .003 0 .004.002a.057.057 0 00.013.08c.066.048.136.091.208.13a.057.057 0 00.077-.023h.001a1.805 1.805 0 00.224.093c-.01.03.008.062.038.07.039.013.078.023.118.032a.057.057 0 00.068-.042h.001a1.811 1.811 0 00.122.02.057.057 0 00.051.062 1.896 1.896 0 00.368 0 .057.057 0 00.05-.062h.002l.003-.001h.001a.057.057 0 00.066.047c.081-.013.16-.032.238-.055.03-.01.047-.041.038-.071v-.001a1.807 1.807 0 00.225-.092c.015.027.05.038.077.023.036-.02.072-.04.106-.062a.057.057 0 00.018-.078v-.001a1.825 1.825 0 00.102-.071c.02.024.055.027.08.007.094-.078.181-.165.26-.26a.057.057 0 00-.008-.08c0-.002 0-.003.002-.004a.057.057 0 00.08-.013c.048-.066.091-.136.13-.208a.057.057 0 00-.023-.077v-.001a1.805 1.805 0 00.093-.224c.03.01.062-.008.07-.038.013-.039.023-.078.032-.118a.057.057 0 00-.042-.068v-.001a1.811 1.811 0 00.02-.122.057.057 0 00.062-.051 1.896 1.896 0 000-.368.057.057 0 00-.062-.05v-.002l-.001-.003v-.001a.057.057 0 00.047-.065 1.865 1.865 0 00-.055-.24.057.057 0 00-.071-.037h-.001a1.805 1.805 0 00-.092-.225.057.057 0 00.023-.077 1.871 1.871 0 00-.062-.106.057.057 0 00-.078-.018h-.001a1.825 1.825 0 00-.071-.102.057.057 0 00.007-.08 1.886 1.886 0 00-.26-.26.057.057 0 00-.08.008c-.002 0-.003 0-.004-.002a.057.057 0 00-.013-.08 1.874 1.874 0 00-.208-.13.057.057 0 00-.077.023h-.001a1.805 1.805 0 00-.224-.093.057.057 0 00-.038-.07 1.859 1.859 0 00-.118-.032.057.057 0 00-.068.042h-.001a1.811 1.811 0 00-.122-.02.057.057 0 00-.051-.062A1.896 1.896 0 006.375 6zM8.625 16.5c-.062 0-.123.003-.184.009a.057.057 0 00-.05.062h-.002l-.003.001h-.001a.057.057 0 00-.065-.047 1.856 1.856 0 00-.24.055.057.057 0 00-.037.071v.001a1.805 1.805 0 00-.225.092.057.057 0 00-.077-.023c-.036.02-.072.04-.106.062a.057.057 0 00-.018.078v.001a1.763 1.763 0 00-.102.071.057.057 0 00-.08-.007 1.882 1.882 0 00-.26.26.057.057 0 00.008.08c0 .002 0 .003-.002.004a.057.057 0 00-.08.013 1.882 1.882 0 00-.13.208.057.057 0 00.023.077v.001a1.799 1.799 0 00-.093.224.057.057 0 00-.07.038 1.845 1.845 0 00-.032.118.057.057 0 00.042.068v.001a1.799 1.799 0 00-.02.122.057.057 0 00-.062.051 1.896 1.896 0 000 .368c.003.031.03.054.062.05l.001.002v.004a.057.057 0 00-.047.066c.013.081.032.16.055.238.01.03.041.047.071.038h.001a1.799 1.799 0 00.092.225.057.057 0 00-.023.077c.02.036.04.072.062.106a.057.057 0 00.078.019h.001a1.814 1.814 0 00.071.1.057.057 0 00-.007.08c.078.095.165.183.26.26.024.02.06.017.08-.007.002 0 .003 0 .004.002a.057.057 0 00.013.08c.066.048.136.091.208.13a.057.057 0 00.077-.023h.001a1.805 1.805 0 00.224.093c-.01.03.008.062.038.07.039.012.078.023.118.032a.057.057 0 00.068-.042h.001a1.786 1.786 0 00.122.02c-.003.031.02.06.051.062a1.893 1.893 0 00.368 0 .057.057 0 00.05-.062h.002l.003-.001h.001a.057.057 0 00.066.047c.081-.013.16-.032.238-.055.03-.01.047-.041.038-.071v-.001a1.805 1.805 0 00.225-.092c.015.027.05.038.077.023.036-.02.072-.04.106-.062a.057.057 0 00.018-.078v-.001a1.763 1.763 0 00.102-.071c.02.024.055.027.08.007a1.88 1.88 0 00.26-.26.057.057 0 00-.008-.08c0-.002 0-.003.002-.004a.057.057 0 00.08-.013c.048-.066.091-.136.13-.208a.057.057 0 00-.023-.077v-.001a1.797 1.797 0 00.093-.224c.03.01.062-.008.07-.038.012-.038.023-.078.032-.118a.057.057 0 00-.042-.068v-.001a1.774 1.774 0 00.02-.122c.031.003.06-.02.062-.051a1.893 1.893 0 000-.368.057.057 0 00-.062-.05v-.002l-.001-.003v-.001a.057.057 0 00.047-.066 1.855 1.855 0 00-.055-.238.057.057 0 00-.071-.038h-.001a1.797 1.797 0 00-.092-.225.057.057 0 00.023-.077 1.927 1.927 0 00-.062-.106.057.057 0 00-.078-.019h-.001a1.753 1.753 0 00-.071-.1.057.057 0 00.007-.08 1.88 1.88 0 00-.26-.26.057.057 0 00-.08.007c-.002 0-.003 0-.004-.002a.057.057 0 00-.013-.08 1.878 1.878 0 00-.208-.13.057.057 0 00-.077.023h-.001a1.805 1.805 0 00-.224-.093.057.057 0 00-.038-.07 1.872 1.872 0 00-.118-.032.057.057 0 00-.068.042h-.001a1.786 1.786 0 00-.122-.02.057.057 0 00-.051-.062 1.893 1.893 0 00-.184-.009zM14.625 7.5c-.062 0-.123.003-.184.009a.057.057 0 00-.05.062l-.002.001h-.003-.001a.057.057 0 00-.066-.047 1.864 1.864 0 00-.238.055.057.057 0 00-.038.071v.001a1.799 1.799 0 00-.225.092.057.057 0 00-.077-.023c-.036.02-.072.04-.106.062a.057.057 0 00-.018.078v.001a1.814 1.814 0 00-.102.071.057.057 0 00-.08-.007 1.882 1.882 0 00-.26.26.057.057 0 00.008.08c0 .002 0 .003-.002.004a.057.057 0 00-.08.013c-.048.066-.091.136-.13.208a.057.057 0 00.023.077v.001a1.805 1.805 0 00-.093.224.057.057 0 00-.07.038 1.872 1.872 0 00-.032.118.057.057 0 00.042.068v.001a1.786 1.786 0 00-.02.122.057.057 0 00-.062.051 1.893 1.893 0 000 .368c.003.031.03.054.062.05v.002l.001.003v.001a.057.057 0 00-.047.066c.013.081.032.16.055.238.01.03.041.047.071.038h.001a1.798 1.798 0 00.092.225.057.057 0 00-.023.077c.02.036.04.072.062.106a.057.057 0 00.078.018h.001a1.753 1.753 0 00.071.102.057.057 0 00-.007.08c.078.094.165.181.26.26.024.02.06.016.08-.008.002 0 .003 0 .004.002a.057.057 0 00.013.08c.066.048.136.091.208.13a.057.057 0 00.077-.023h.001a1.797 1.797 0 00.224.093c-.01.03.008.062.038.07.039.012.078.023.118.032a.057.057 0 00.068-.042h.001a1.774 1.774 0 00.122.02c-.003.031.02.06.051.062a1.893 1.893 0 00.368 0 .057.057 0 00.05-.062h.002l.003-.001h.001a.057.057 0 00.066.047c.081-.013.16-.032.238-.055.03-.01.047-.041.038-.071v-.001a1.797 1.797 0 00.225-.092c.015.027.05.038.077.023.036-.02.072-.04.106-.062a.057.057 0 00.018-.078v-.001a1.753 1.753 0 00.102-.071c.02.024.055.027.08.007.094-.078.181-.165.26-.26a.057.057 0 00-.008-.08c0-.002 0-.003.002-.004a.057.057 0 00.08-.013c.048-.066.091-.136.13-.208a.057.057 0 00-.023-.077v-.001a1.798 1.798 0 00.093-.224c.03.01.062-.008.07-.038.012-.039.023-.078.032-.118a.057.057 0 00-.042-.068v-.001a1.786 1.786 0 00.02-.122c.031.003.06-.02.062-.051a1.893 1.893 0 000-.368.057.057 0 00-.062-.05v-.002l-.001-.003v-.001a.057.057 0 00.047-.065 1.856 1.856 0 00-.055-.24.057.057 0 00-.071-.037h-.001a1.805 1.805 0 00-.092-.225.057.057 0 00.023-.077 1.903 1.903 0 00-.062-.106.057.057 0 00-.078-.018h-.001a1.763 1.763 0 00-.071-.102.057.057 0 00.007-.08 1.882 1.882 0 00-.26-.26.057.057 0 00-.08.008c-.002 0-.003 0-.004-.002a.057.057 0 00-.013-.08 1.882 1.882 0 00-.208-.13.057.057 0 00-.077.023h-.001a1.797 1.797 0 00-.224-.093.057.057 0 00-.038-.07 1.845 1.845 0 00-.118-.032.057.057 0 00-.068.042h-.001a1.799 1.799 0 00-.122-.02.057.057 0 00-.051-.062 1.896 1.896 0 00-.184-.009z" fill="#F3752B"/><path fill-rule="evenodd" clip-rule="evenodd" d="M.182 13.756a.363.363 0 01.277-.219.006.006 0 00.004-.006l-.003-.023a.006.006 0 00-.006-.005.364.364 0 01-.397-.327 12.08 12.08 0 01-.011-.12 1 1 0 01.985-.829h1.875c.17 0 .33.042.469.117.14-.075.3-.117.469-.117h2.812a1 1 0 01.938.652c.098-.264.304-.475.564-.58a1 1 0 01-.537-1.588l1.155-1.464a.996.996 0 01.38-.295.996.996 0 01.198-.438l1.734-2.196a1 1 0 011.078-.337 1 1 0 01.077-1.127l.578-.732a1 1 0 011.57 1.239l-.578.732a1 1 0 01-1.079.336 1 1 0 01-.076 1.128l-1.734 2.196a.995.995 0 01-.38.295.995.995 0 01-.198.438L9.191 11.95a.996.996 0 01-.342.277h.62a1 1 0 010 2H8.53a1 1 0 01-.875-.516.996.996 0 01-.198.435l-.578.732a1 1 0 01-1.08.337 1 1 0 01-.076 1.128l-1.733 2.196a.996.996 0 01-.38.295.996.996 0 01-.198.437l-.472.599a12.17 12.17 0 01-.217-.257.364.364 0 01.05-.512.006.006 0 000-.008c-.159-.207-.311-.42-.457-.637a.006.006 0 00-.008-.002.364.364 0 01-.5-.116 10.99 10.99 0 01-.09-.147l.124-.159a.995.995 0 01.38-.294.995.995 0 01.198-.438l1.733-2.196a1 1 0 011.08-.337 1.003 1.003 0 01-.139-.54H3.844a.995.995 0 01-.469-.116.995.995 0 01-.469.116H1.031a1 1 0 01-.849-.471zm18.326 8.16a.363.363 0 01-.17.276c-.222.138-.449.27-.68.393a.364.364 0 01-.492-.149.006.006 0 00-.008-.002c-.065.032-.13.064-.197.095.059-.272.228-.503.458-.644a1 1 0 01-.48-.854V18.47c0-.153.034-.298.096-.427a.996.996 0 01-.096-.427v-1.709a1 1 0 112 0v1.709a.996.996 0 01-.096.427c.062.13.096.274.096.427v2.562a.998.998 0 01-.067.36c-.136.1-.275.198-.416.292a.006.006 0 00-.002.008c.032.05.05.107.054.163a.994.994 0 01-.049.031c.017.01.033.02.049.032zm5.49-9.689c-.006.32-.024.636-.055.95a.364.364 0 01-.397.326.006.006 0 00-.006.005c-.032.24-.07.478-.116.714a1 1 0 01.107-1.995h.467zm-5.06-10.019l.001.032v.854a1 1 0 01-2 0V2.24c0-.04.002-.079.007-.117l-.822 1.041a1 1 0 11-1.57-1.239L15.613.583c.108.091.158.24.114.384 0 .003 0 .007.004.008.491.166.968.364 1.427.591.003.002.006 0 .008-.002a.364.364 0 01.492-.149c.444.238.872.503 1.28.793zm.001 3.448a1 1 0 00-2 0v1.709c0 .152.034.297.096.427a.996.996 0 00-.096.427v2.562a1 1 0 00.48.854 1.002 1.002 0 00-.445.592h-1.88a.996.996 0 00-.469.117.996.996 0 00-.469-.117h-1.875a1 1 0 100 2h1.875c.17 0 .33-.042.469-.116.14.074.3.116.469.116h2.376a1 1 0 001.414-.557 1 1 0 00.897.557h.938a1 1 0 000-2h-.938a1 1 0 00-.842.461v-.198a1 1 0 00-.48-.855 1 1 0 00.48-.854V8.22a.996.996 0 00-.096-.427.996.996 0 00.096-.427V5.656z" fill="#fff"/><path d="M11.25 3a3 3 0 01-3 3 3 3 0 013-3z" fill="#00A896"/><path fill-rule="evenodd" clip-rule="evenodd" d="M10.449 2.662a.498.498 0 01.254-.12c.179-.027.361-.042.547-.042a.5.5 0 01.5.5c0 .186-.014.369-.043.547a.5.5 0 01-.474.422.5.5 0 01.136.62c-.084.165-.18.321-.287.469a.5.5 0 01-.615.16.5.5 0 01-.16.614 3.491 3.491 0 01-.975.497.498.498 0 01-.28.009.498.498 0 01-.255.12 3.522 3.522 0 01-.547.042.5.5 0 01-.5-.5c0-.186.015-.369.043-.547a.5.5 0 01.474-.422.5.5 0 01-.136-.62 3.5 3.5 0 01.287-.469.5.5 0 01.615-.16.5.5 0 01.16-.614 3.49 3.49 0 01.975-.497.498.498 0 01.28-.009zM9.277 4.027a.5.5 0 01-.05.504 2.5 2.5 0 00-.205.334.5.5 0 01-.426.272c.102.08.17.2.187.33a.497.497 0 01.063.013c.05-.045.11-.08.177-.102a2.49 2.49 0 00.696-.355.5.5 0 01.504-.05.5.5 0 01.05-.504c.077-.105.146-.217.205-.334a.5.5 0 01.426-.272.501.501 0 01-.187-.33.494.494 0 01-.063-.013.499.499 0 01-.177.102 2.49 2.49 0 00-.696.355.5.5 0 01-.504.05z" fill="#00A896"/><path d="M11.25 15.75a3 3 0 013 3 3 3 0 01-3-3z" fill="#00A896"/><path fill-rule="evenodd" clip-rule="evenodd" d="M10.912 16.551a.498.498 0 01-.12-.254 3.518 3.518 0 01-.042-.547.5.5 0 01.5-.5c.186 0 .368.014.547.043a.5.5 0 01.422.474.5.5 0 01.62-.136c.165.084.321.18.469.287a.5.5 0 01.16.615.5.5 0 01.614.16c.213.293.383.622.497.975.031.095.032.192.009.28.061.07.104.157.12.255.027.178.042.361.042.547a.5.5 0 01-.5.5c-.186 0-.368-.015-.547-.043a.5.5 0 01-.422-.474.5.5 0 01-.62.136 3.496 3.496 0 01-.469-.288.5.5 0 01-.16-.614.5.5 0 01-.614-.16 3.491 3.491 0 01-.497-.975.498.498 0 01-.009-.28zm1.365 1.172a.5.5 0 01.504.05c.105.077.217.146.334.205a.5.5 0 01.272.426.5.5 0 01.33-.187.488.488 0 01.013-.063.498.498 0 01-.102-.177 2.49 2.49 0 00-.355-.696.5.5 0 01-.05-.504.5.5 0 01-.504-.05 2.506 2.506 0 00-.334-.205.5.5 0 01-.272-.426.5.5 0 01-.33.187.488.488 0 01-.013.063c.045.05.08.11.102.177.081.252.202.486.355.696a.5.5 0 01.05.504z" fill="#00A896"/><path d="M37.4 12.57c-1.627 0-2.44.5-2.44 1.5 0 .36.107.647.32.86.213.2.5.3.86.3.64 0 1.16-.2 1.56-.6.4-.413.6-.96.6-1.64v-.24c0-.12-.06-.18-.18-.18h-.72zm-2.24 4.96c-.92 0-1.68-.293-2.28-.88-.587-.6-.88-1.373-.88-2.32 0-2.427 1.8-3.64 5.4-3.64h.72c.12 0 .18-.053.18-.16v-.1c0-.507-.133-.873-.4-1.1-.253-.227-.687-.34-1.3-.34-.813 0-1.787.127-2.92.38a.917.917 0 01-.76-.18.834.834 0 01-.32-.68v-.04c0-.333.1-.633.3-.9.213-.28.48-.447.8-.5 1.173-.227 2.187-.34 3.04-.34 1.747 0 2.98.313 3.7.94.733.627 1.1 1.667 1.1 3.12v5.4c0 .307-.113.573-.34.8-.227.227-.493.34-.8.34h-.74c-.32 0-.593-.107-.82-.32a1.191 1.191 0 01-.36-.82v-.22c0-.013-.007-.02-.02-.02-.027 0-.04.007-.04.02-.84 1.04-1.927 1.56-3.26 1.56zM47.242 10.89v2.48c0 .44.2.847.6 1.22.413.36.88.54 1.4.54.613 0 1.1-.247 1.46-.74.36-.507.54-1.26.54-2.26 0-2-.667-3-2-3-.52 0-.987.187-1.4.56-.4.36-.6.76-.6 1.2zm-2.02 10.84c-.307 0-.573-.113-.8-.34a1.095 1.095 0 01-.34-.8V8.07c0-.307.113-.573.34-.8.227-.227.493-.34.8-.34h.8c.32 0 .593.113.82.34.227.213.347.48.36.8v.16c0 .013.007.02.02.02l.04-.04c.853-.987 1.88-1.48 3.08-1.48 1.24 0 2.227.467 2.96 1.4.747.933 1.12 2.267 1.12 4 0 1.68-.387 3-1.16 3.96-.76.96-1.733 1.44-2.92 1.44-1.107 0-2.093-.407-2.96-1.22-.013-.013-.027-.02-.04-.02-.013 0-.02.007-.02.02v4.28c0 .307-.113.573-.34.8-.227.227-.493.34-.8.34h-.96zM57.005 9.37c-.307 0-.574-.113-.8-.34a1.095 1.095 0 01-.34-.8v-.16c0-.307.113-.573.34-.8.227-.227.493-.34.8-.34h7.24c.306 0 .573.113.8.34.227.227.34.493.34.8v.16c0 .307-.114.573-.34.8-.227.227-.493.34-.8.34h-1.78c-.107 0-.16.06-.16.18v6.64c0 .307-.114.573-.34.8-.227.227-.494.34-.8.34h-1.08c-.307 0-.574-.113-.8-.34a1.095 1.095 0 01-.34-.8V9.55c0-.12-.053-.18-.16-.18h-1.78zM71.882 8.91c-.6 0-1.053.16-1.36.48-.307.307-.5.84-.58 1.6 0 .107.047.16.14.16h3.38c.12 0 .18-.06.18-.18-.053-1.373-.64-2.06-1.76-2.06zm.5 8.62c-1.814 0-3.214-.46-4.2-1.38-.974-.92-1.46-2.26-1.46-4.02 0-1.747.433-3.08 1.3-4 .88-.933 2.146-1.4 3.8-1.4 3.173 0 4.787 1.733 4.84 5.2 0 .32-.127.593-.38.82-.24.213-.52.32-.84.32h-5.34c-.133 0-.187.06-.16.18.107.733.387 1.26.84 1.58.467.307 1.16.46 2.08.46.6 0 1.247-.087 1.94-.26a.815.815 0 01.74.16c.227.173.34.4.34.68v.04c0 .333-.107.64-.32.92-.2.267-.46.427-.78.48-.773.147-1.573.22-2.4.22zm1.98-15.26c.306 0 .567.113.78.34.227.213.34.473.34.78v.74c0 .307-.114.573-.34.8a1.03 1.03 0 01-.78.34h-.68a1.129 1.129 0 01-1.12-1.14v-.74c0-.307.106-.567.32-.78.227-.227.493-.34.8-.34h.68zm-5.08 0h.68c.306 0 .566.113.78.34.227.213.34.473.34.78v.74c0 .307-.113.573-.34.8a1.03 1.03 0 01-.78.34h-.68a1.129 1.129 0 01-1.12-1.14v-.74c0-.307.106-.567.32-.78.227-.227.493-.34.8-.34zM79.83 17.33a1.13 1.13 0 01-1.12-1.14V8.07a1.13 1.13 0 011.12-1.14h1.06c.334 0 .648.1.94.3.294.187.514.433.66.74l2.06 4.72.04.02.02-.02 2.08-4.72c.148-.307.36-.553.64-.74.294-.2.608-.3.94-.3h1.12c.308 0 .568.113.78.34.228.227.34.493.34.8v8.12c0 .307-.112.573-.34.8a1.03 1.03 0 01-.78.34h-.92a1.13 1.13 0 01-1.12-1.14v-4.88l-.02-.02-.02.02-1.1 2.6c-.132.32-.346.573-.64.76-.28.187-.592.28-.94.28h-.1c-.346 0-.666-.093-.96-.28a1.658 1.658 0 01-.62-.76l-1.1-2.6-.02-.02-.02.02v4.88c0 .307-.112.573-.34.8a1.03 1.03 0 01-.78.34h-.86z" fill="#00A896"/><path d="M96.14 17.32c-.307 0-.573-.113-.8-.34a1.095 1.095 0 01-.34-.8V8.06c0-.307.113-.573.34-.8.227-.227.493-.34.8-.34h7.2c.307 0 .573.113.8.34.227.227.34.493.34.8v8.12c0 .307-.113.573-.34.8-.227.227-.493.34-.8.34h-1c-.307 0-.573-.113-.8-.34a1.093 1.093 0 01-.34-.8V9.44c0-.107-.053-.16-.16-.16h-2.6c-.107 0-.16.053-.16.16v6.74c0 .307-.113.573-.34.8-.227.227-.493.34-.8.34h-1zM108.269 17.32c-.307 0-.573-.113-.8-.34a1.093 1.093 0 01-.34-.8V8.06c0-.307.113-.573.34-.8.227-.227.493-.34.8-.34h.94c.307 0 .573.113.8.34.227.227.34.493.34.8v4.84h.04l2.46-4.96c.333-.68.88-1.02 1.64-1.02h.98c.307 0 .573.113.8.34.227.227.34.493.34.8v8.12c0 .307-.113.573-.34.8-.227.227-.493.34-.8.34h-.94c-.307 0-.573-.113-.8-.34a1.093 1.093 0 01-.34-.8v-4.84h-.04l-2.46 4.96c-.333.68-.88 1.02-1.64 1.02h-.98zM120.398 17.32c-.307 0-.574-.113-.8-.34a1.093 1.093 0 01-.34-.8V8.06c0-.307.113-.573.34-.8.226-.227.493-.34.8-.34h1c.306 0 .566.113.78.34.226.227.34.493.34.8v6.88c0 .107.06.16.18.16h2.58c.12 0 .18-.053.18-.16V8.06c0-.307.113-.573.34-.8.226-.227.493-.34.8-.34h1c.306 0 .566.113.78.34.226.227.34.493.34.8v6.88c0 .107.06.16.18.16h.76c.306 0 .573.113.8.34.226.227.34.493.34.8v2.34c0 .307-.114.573-.34.8-.227.227-.494.34-.8.34h-.6c-.307 0-.574-.113-.8-.34a1.093 1.093 0 01-.34-.8V17.5c0-.12-.054-.18-.16-.18h-7.36zM133.777 17.32c-.307 0-.574-.113-.8-.34a1.093 1.093 0 01-.34-.8V8.06c0-.307.113-.573.34-.8.226-.227.493-.34.8-.34h1c.306 0 .566.113.78.34.226.227.34.493.34.8v6.88c0 .107.06.16.18.16h2.58c.12 0 .18-.053.18-.16V8.06c0-.307.113-.573.34-.8.226-.227.493-.34.8-.34h1c.306 0 .566.113.78.34.226.227.34.493.34.8v6.88c0 .107.06.16.18.16h.76c.306 0 .573.113.8.34.226.227.34.493.34.8v2.34c0 .307-.114.573-.34.8-.227.227-.494.34-.8.34h-.6c-.307 0-.574-.113-.8-.34a1.093 1.093 0 01-.34-.8V17.5c0-.12-.054-.18-.16-.18h-7.36zM150.916 12.56c-1.627 0-2.44.5-2.44 1.5 0 .36.106.647.32.86.213.2.5.3.86.3.64 0 1.16-.2 1.56-.6.4-.413.6-.96.6-1.64v-.24c0-.12-.06-.18-.18-.18h-.72zm-2.24 4.96c-.92 0-1.68-.293-2.28-.88-.587-.6-.88-1.373-.88-2.32 0-2.427 1.8-3.64 5.4-3.64h.72c.12 0 .18-.053.18-.16v-.1c0-.507-.134-.873-.4-1.1-.254-.227-.687-.34-1.3-.34-.814 0-1.787.127-2.92.38a.916.916 0 01-.76-.18.832.832 0 01-.32-.68v-.04c0-.333.1-.633.3-.9.213-.28.48-.447.8-.5 1.173-.227 2.186-.34 3.04-.34 1.746 0 2.98.313 3.7.94.733.627 1.1 1.667 1.1 3.12v5.4c0 .307-.114.573-.34.8-.227.227-.494.34-.8.34h-.74c-.32 0-.594-.107-.82-.32a1.189 1.189 0 01-.36-.82v-.22c0-.013-.007-.02-.02-.02-.027 0-.04.007-.04.02-.84 1.04-1.927 1.56-3.26 1.56z" fill="#F3752B"/></svg>
