<svg width="15" height="11" viewBox="0 0 15 11" fill="none" xmlns="http://www.w3.org/2000/svg">
<path fill-rule="evenodd" clip-rule="evenodd" d="M14.207 0.293048C14.3946 0.480743 14.5 0.735279 14.5 1.00068C14.5 1.26608 14.3946 1.52062 14.207 1.70831L6.1998 9.71546C6.01211 9.9031 5.75757 10.0085 5.49217 10.0085C5.22677 10.0085 4.97223 9.9031 4.78454 9.71546L0.780963 5.71189C0.598642 5.52312 0.497757 5.27029 0.500038 5.00786C0.502318 4.74543 0.607581 4.49439 0.793155 4.30882C0.978729 4.12324 1.22977 4.01798 1.4922 4.0157C1.75463 4.01342 2.00746 4.1143 2.19623 4.29662L5.49217 7.59257L12.7917 0.293048C12.9794 0.10541 13.2339 0 13.4993 0C13.7647 0 14.0193 0.10541 14.207 0.293048Z" fill="white"/>
</svg>
